<svg xmlns="http://www.w3.org/2000/svg" viewBox="0 0 160 160" role="img" aria-labelledby="title desc">
<title id="title">StudyNest book nest logo</title><desc id="desc">A circular nest formed from books with a growing sprout at its centre.</desc>
<defs><linearGradient id="navy" x1="0" y1="0" x2="1" y2="1"><stop stop-color="#123f7a"/><stop offset="1" stop-color="#071f43"/></linearGradient><linearGradient id="gold" x1="0" y1="0" x2="0" y2="1"><stop stop-color="#f7c643"/><stop offset="1" stop-color="#d79500"/></linearGradient></defs>
<g fill="none" stroke-linecap="round" stroke-linejoin="round">
<g transform="rotate(-62 80 80)"><rect x="52" y="9" width="56" height="19" rx="6" fill="url(#navy)" stroke="#0b2b59" stroke-width="3"/><path d="M59 13h42M59 23h42" stroke="#fffaf0" stroke-width="3"/></g>
<g transform="rotate(-20 80 80)"><rect x="52" y="9" width="56" height="19" rx="6" fill="url(#navy)" stroke="#0b2b59" stroke-width="3"/><path d="M59 13h42M59 23h42" stroke="#fffaf0" stroke-width="3"/></g>
<g transform="rotate(22 80 80)"><rect x="52" y="9" width="56" height="19" rx="6" fill="url(#navy)" stroke="#0b2b59" stroke-width="3"/><path d="M59 13h42M59 23h42" stroke="#fffaf0" stroke-width="3"/></g>
<g transform="rotate(64 80 80)"><rect x="52" y="9" width="56" height="19" rx="6" fill="url(#navy)" stroke="#0b2b59" stroke-width="3"/><path d="M59 13h42M59 23h42" stroke="#fffaf0" stroke-width="3"/></g>
<g transform="rotate(106 80 80)"><rect x="52" y="9" width="56" height="19" rx="6" fill="url(#navy)" stroke="#0b2b59" stroke-width="3"/><path d="M59 13h42M59 23h42" stroke="#fffaf0" stroke-width="3"/></g>
<g transform="rotate(148 80 80)"><rect x="52" y="9" width="56" height="19" rx="6" fill="url(#navy)" stroke="#0b2b59" stroke-width="3"/><path d="M59 13h42M59 23h42" stroke="#fffaf0" stroke-width="3"/></g>
<g transform="rotate(190 80 80)"><rect x="52" y="9" width="56" height="19" rx="6" fill="url(#navy)" stroke="#0b2b59" stroke-width="3"/><path d="M59 13h42M59 23h42" stroke="#fffaf0" stroke-width="3"/></g>
<g transform="rotate(232 80 80)"><rect x="52" y="9" width="56" height="19" rx="6" fill="url(#navy)" stroke="#0b2b59" stroke-width="3"/><path d="M59 13h42M59 23h42" stroke="#fffaf0" stroke-width="3"/></g>
<path d="M80 103V77" stroke="#0b2b59" stroke-width="5"/><path d="M80 88c-14 0-20-9-20-18 13 0 20 6 20 18Z" fill="#123f7a" stroke="#0b2b59" stroke-width="2"/><path d="M80 79c2-14 11-20 21-19-1 13-8 20-21 19Z" fill="#123f7a" stroke="#0b2b59" stroke-width="2"/><path d="M115 111v25" stroke="url(#gold)" stroke-width="10"/>
</g></svg>